<mxfile>
    <diagram id="Ulg4EJe6vZt3iasaNdWD" name="Page-1">
        <mxGraphModel dx="341" dy="1456" grid="1" gridSize="10" guides="1" tooltips="1" connect="1" arrows="1" fold="1" page="1" pageScale="1" pageWidth="827" pageHeight="1169" math="0" shadow="0">
            <root>
                <mxCell id="0"/>
                <mxCell id="1" parent="0"/>
                <mxCell id="49" value="&lt;h1&gt;การไล่โค้ด&lt;/h1&gt;&lt;h1&gt;&lt;p style=&quot;font-size: 12px ; font-weight: 400&quot;&gt;มาก --&amp;gt; น้อย ( Loop แบบลดค่า หรือ แบบถอยหลัง )&lt;/p&gt;&lt;/h1&gt;&lt;h1&gt;&lt;span style=&quot;font-size: 12px ; font-weight: normal&quot;&gt;for i in range(15,-4,-5)&lt;/span&gt;&lt;br&gt;&lt;/h1&gt;&lt;p&gt;--&amp;gt; i = 15, 10, 5, 0&lt;/p&gt;&lt;p&gt;&lt;span&gt;15,&amp;nbsp; 14,&amp;nbsp; 13,&amp;nbsp; 12,&amp;nbsp; 11,&lt;/span&gt;&lt;/p&gt;&lt;p&gt;&lt;span&gt;10,&amp;nbsp; &amp;nbsp; 9,&amp;nbsp; &amp;nbsp; 8,&amp;nbsp; &amp;nbsp; 7,&amp;nbsp; &amp;nbsp; 6,&lt;/span&gt;&lt;/p&gt;&lt;p&gt;&lt;span&gt;&amp;nbsp; 5,&amp;nbsp; &amp;nbsp; 4,&amp;nbsp; &amp;nbsp; 3,&amp;nbsp; &amp;nbsp; 2,&amp;nbsp; &amp;nbsp; 1,&lt;/span&gt;&lt;/p&gt;&lt;p&gt;&lt;span&gt;&amp;nbsp; 0,&amp;nbsp; &amp;nbsp;-1,&amp;nbsp; &amp;nbsp;-2,&amp;nbsp; &amp;nbsp;-3,&amp;nbsp; &amp;nbsp;-4,&lt;/span&gt;&lt;/p&gt;&lt;p&gt;&lt;span&gt;Logic การจบ --&amp;gt; จบก่อนตัวสุดท้าย&lt;/span&gt;&lt;br&gt;&lt;/p&gt;&lt;p&gt;ผมจะให้จบก่อนตัวสุดท้าย 1 ในที่นี้ ก็คือ -3&lt;/p&gt;" style="text;html=1;strokeColor=none;fillColor=none;spacing=5;spacingTop=-20;whiteSpace=wrap;overflow=hidden;rounded=0;" parent="1" vertex="1">
                    <mxGeometry x="90" width="270" height="300" as="geometry"/>
                </mxCell>
                <mxCell id="52" style="edgeStyle=orthogonalEdgeStyle;rounded=0;orthogonalLoop=1;jettySize=auto;html=1;" edge="1" parent="1" source="50" target="51">
                    <mxGeometry relative="1" as="geometry"/>
                </mxCell>
                <mxCell id="50" value="start" style="rounded=1;whiteSpace=wrap;html=1;" vertex="1" parent="1">
                    <mxGeometry x="360" y="40" width="120" height="60" as="geometry"/>
                </mxCell>
                <mxCell id="54" style="edgeStyle=orthogonalEdgeStyle;rounded=0;orthogonalLoop=1;jettySize=auto;html=1;" edge="1" parent="1" source="51" target="53">
                    <mxGeometry relative="1" as="geometry"/>
                </mxCell>
                <mxCell id="51" value="i = 15" style="rounded=0;whiteSpace=wrap;html=1;" vertex="1" parent="1">
                    <mxGeometry x="360" y="180" width="120" height="60" as="geometry"/>
                </mxCell>
                <mxCell id="56" style="edgeStyle=orthogonalEdgeStyle;rounded=0;orthogonalLoop=1;jettySize=auto;html=1;" edge="1" parent="1" source="53" target="55">
                    <mxGeometry relative="1" as="geometry"/>
                </mxCell>
                <mxCell id="61" style="edgeStyle=orthogonalEdgeStyle;rounded=0;orthogonalLoop=1;jettySize=auto;html=1;" edge="1" parent="1" source="53" target="60">
                    <mxGeometry relative="1" as="geometry"/>
                </mxCell>
                <mxCell id="53" value="i &amp;gt;= -3" style="rhombus;whiteSpace=wrap;html=1;" vertex="1" parent="1">
                    <mxGeometry x="380" y="320" width="80" height="80" as="geometry"/>
                </mxCell>
                <mxCell id="58" style="edgeStyle=orthogonalEdgeStyle;rounded=0;orthogonalLoop=1;jettySize=auto;html=1;" edge="1" parent="1" source="55" target="57">
                    <mxGeometry relative="1" as="geometry"/>
                </mxCell>
                <mxCell id="55" value="i" style="shape=display;whiteSpace=wrap;html=1;" vertex="1" parent="1">
                    <mxGeometry x="260" y="440" width="80" height="40" as="geometry"/>
                </mxCell>
                <mxCell id="59" style="edgeStyle=orthogonalEdgeStyle;rounded=0;orthogonalLoop=1;jettySize=auto;html=1;entryX=0;entryY=0;entryDx=0;entryDy=0;" edge="1" parent="1" source="57" target="53">
                    <mxGeometry relative="1" as="geometry">
                        <Array as="points">
                            <mxPoint x="300" y="680"/>
                            <mxPoint x="180" y="680"/>
                            <mxPoint x="180" y="300"/>
                            <mxPoint x="400" y="300"/>
                        </Array>
                    </mxGeometry>
                </mxCell>
                <mxCell id="57" value="i -= 5" style="rounded=0;whiteSpace=wrap;html=1;" vertex="1" parent="1">
                    <mxGeometry x="240" y="560" width="120" height="60" as="geometry"/>
                </mxCell>
                <mxCell id="60" value="End" style="rounded=1;whiteSpace=wrap;html=1;" vertex="1" parent="1">
                    <mxGeometry x="480" y="440" width="120" height="60" as="geometry"/>
                </mxCell>
                <mxCell id="62" value="True" style="text;html=1;strokeColor=none;fillColor=none;align=center;verticalAlign=middle;whiteSpace=wrap;rounded=0;" vertex="1" parent="1">
                    <mxGeometry x="320" y="340" width="40" height="20" as="geometry"/>
                </mxCell>
                <mxCell id="63" value="False" style="text;html=1;strokeColor=none;fillColor=none;align=center;verticalAlign=middle;whiteSpace=wrap;rounded=0;" vertex="1" parent="1">
                    <mxGeometry x="480" y="340" width="40" height="20" as="geometry"/>
                </mxCell>
            </root>
        </mxGraphModel>
    </diagram>
</mxfile>